<?xml version="1.0" encoding="UTF-8" standalone="no"?>
<svg width="185px" height="24px" viewBox="0 0 185 24" version="1.1" xmlns="http://www.w3.org/2000/svg" xmlns:xlink="http://www.w3.org/1999/xlink" xmlns:sketch="http://www.bohemiancoding.com/sketch/ns">
    <!-- Generator: Sketch 3.4.3 (16618) - http://www.bohemiancoding.com/sketch -->
    <title>Lockup</title>
    <desc>Created with Sketch.</desc>
    <defs></defs>
    <g id="Prototype-1440x900" stroke="none" stroke-width="1" fill="none" fill-rule="evenodd" sketch:type="MSPage">
        <g id="Home" sketch:type="MSArtboardGroup" transform="translate(-110.000000, -59.000000)">
            <g id="Lockup" sketch:type="MSLayerGroup" transform="translate(110.000000, 59.000000)">
                <path d="M30.098643,8.78816203 L30.0995544,8.78694684 L29.9692253,8.65327595 L23.0930734,1.72395949 L23.0930734,1.7236557 L21.7654785,0.382389873 L21.7651747,0.382086076 C21.6463899,0.262086076 21.4923646,0.204060759 21.3359089,0.191301266 L21.3106937,0.190997468 C21.3094785,0.190997468 21.3082633,0.190693671 21.3073519,0.190693671 L21.2699848,0.190997468 L21.2329215,0.190693671 C21.2314025,0.190693671 21.2304911,0.190997468 21.2295797,0.190997468 L21.2040608,0.191301266 C21.0476051,0.204060759 20.8935797,0.262086076 20.7744911,0.382086076 L20.7744911,0.382389873 L19.4468962,1.7236557 L19.4468962,1.72395949 L12.5412759,8.6830481 L12.410643,8.81671899 L12.4115544,8.81823797 C12.0354532,9.19828861 12.0354532,9.82016203 12.4115544,10.2008203 L13.3211241,11.1201114 C13.7051241,11.5083646 14.333681,11.5083646 14.717681,11.1201114 L14.7173772,11.1195038 L20.7140354,5.07727595 C20.7878582,5.00284557 20.8753519,4.94421266 20.9719595,4.90502278 C21.1624405,4.82725063 21.3760101,4.82876962 21.5652759,4.90836456 L21.5853266,4.91747848 C21.6788962,4.95666835 21.7630481,5.01378228 21.8338329,5.08547848 L27.7928203,11.0900354 C28.1765165,11.4779848 28.8050734,11.4779848 29.1893772,11.0900354 L30.098643,10.1710481 C30.4747443,9.79069367 30.4747443,9.16821266 30.098643,8.78816203" id="Fill-1" fill="#F4364C" sketch:type="MSShapeGroup"></path>
                <path d="M8.67706329,12.6743392 C9.06136709,12.2863899 9.68992405,12.2863899 10.0739241,12.6743392 L10.9837975,13.5936304 C11.3602025,13.9742886 11.3602025,14.5967696 10.9837975,14.9771241 L2.89275949,23.1343899 C2.5084557,23.5223392 1.87989873,23.5223392 1.49589873,23.1343899 L0.585721519,22.2147949 C0.209620253,21.8344405 0.209620253,21.2119595 0.585721519,20.8316051 L8.67706329,12.6743392 Z" id="Fill-4" fill="#0072CE" sketch:type="MSShapeGroup"></path>
                <path d="M41.9203443,20.8314835 C42.2967494,21.2121418 42.2967494,21.834319 41.9203443,22.2149772 L41.0104709,23.1345722 C40.6261671,23.5225215 39.9976101,23.5225215 39.6136101,23.1345722 L31.5222684,14.9776101 C31.1458633,14.5969519 31.1458633,13.9741671 31.5222684,13.5938127 L32.4321418,12.6745215 C32.8164456,12.2862684 33.4450025,12.2862684 33.8290025,12.6745215 L41.9203443,20.8314835 Z" id="Fill-7" fill="#0072CE" sketch:type="MSShapeGroup"></path>
                <path d="M56.4226633,18.3871595 C56.4226633,18.9561722 56.5192709,19.4422481 56.7137013,19.8444759 C56.9084354,20.2470076 57.1785114,20.5763241 57.5257519,20.8333367 C57.8726886,21.0903494 58.2718785,21.2784 58.7233215,21.3956658 C59.174157,21.5135392 59.6629671,21.5721722 60.1909671,21.5721722 C60.7593722,21.5721722 61.2451443,21.5071595 61.6482835,21.3747038 C62.0499038,21.2428557 62.3761823,21.0727291 62.6265114,20.8646278 C62.8762329,20.6565266 63.0569924,20.417438 63.1678785,20.145843 C63.2787646,19.8757671 63.3337519,19.6017418 63.3337519,19.3237671 C63.3337519,18.755362 63.2055494,18.3349063 62.9491443,18.0642228 C62.6924354,17.793843 62.4114228,17.6030582 62.1061063,17.4918684 C61.5784101,17.2977418 60.9641316,17.1145519 60.2635747,16.9404759 C59.5624101,16.7667038 58.6984101,16.5409823 57.6715747,16.2642228 C57.0329924,16.0971342 56.5022582,15.8787038 56.0793722,15.6083241 C55.6555747,15.3373367 55.3195747,15.0350582 55.0695494,14.7020962 C54.8195241,14.3691342 54.6430177,14.0152101 54.5388152,13.6403241 C54.4346127,13.2660456 54.3820557,12.8844759 54.3820557,12.495919 C54.3820557,11.7461468 54.5388152,11.0972354 54.8508152,10.5485772 C55.163119,10.0011342 55.5759797,9.54634937 56.0893975,9.18513418 C56.6025114,8.82452658 57.1858025,8.55779241 57.8380557,8.38402025 C58.4903089,8.2102481 59.1498532,8.12336203 59.8157772,8.12336203 C60.5934987,8.12336203 61.3253468,8.22452658 62.0122329,8.42533671 C62.6994228,8.62705823 63.3027646,8.92842532 63.8237772,9.33126076 C64.3438785,9.7344 64.7564354,10.2298937 65.0623595,10.8198684 C65.3676759,11.4092354 65.5204861,12.0933873 65.5204861,12.8698937 L62.918157,12.8698937 C62.8485873,11.9126278 62.5226127,11.2360709 61.9399291,10.8402228 C61.3563342,10.4449823 60.6138532,10.2469063 59.7121823,10.2469063 C59.4062582,10.2469063 59.0939544,10.2788051 58.7749671,10.3404759 C58.4556759,10.4030582 58.164638,10.5072608 57.900638,10.6530835 C57.6369418,10.7986025 57.4185114,10.9963747 57.2447392,11.2464 C57.0712709,11.4961215 56.9849924,11.8081215 56.9849924,12.1833114 C56.9849924,12.7104 57.1475241,13.1235646 57.4738025,13.4221975 C57.800081,13.7205266 58.2269165,13.9462481 58.7543089,14.0987544 C58.8096,14.1127291 59.0280304,14.171362 59.4102076,14.2755646 C59.7914734,14.3800709 60.2186127,14.4946025 60.6904101,14.6188557 C61.1622076,14.7440203 61.6233722,14.8655392 62.0748152,14.9834127 C62.5259544,15.1018937 62.8485873,15.1881722 63.0427139,15.2434633 C63.5287899,15.3965772 63.9516759,15.6043747 64.3125873,15.8674633 C64.6741063,16.1314633 64.9751696,16.4337418 65.2182076,16.7739949 C65.4612456,17.1145519 65.6417013,17.4785013 65.7598785,17.8667544 C65.8774481,18.2556152 65.9369924,18.6438684 65.9369924,19.0327291 C65.9369924,19.8651342 65.7662582,20.5763241 65.4266127,21.1662987 C65.0863595,21.756881 64.6388658,22.2387038 64.0838278,22.6132861 C63.5287899,22.9878684 62.8971949,23.2625013 62.1896506,23.435362 C61.4814987,23.6091342 60.7593722,23.6963241 60.0244861,23.6963241 C59.1771949,23.6963241 58.379119,23.5915139 57.6299544,23.3831089 C56.8804861,23.1753114 56.2282329,22.8560203 55.6728911,22.4255392 C55.1175494,21.9959696 54.6740051,21.4445772 54.341043,20.7710582 C54.0077772,20.097843 53.8340051,19.3037165 53.8200304,18.3871595 L56.4226633,18.3871595 Z" id="Fill-9" fill="#0072CE" sketch:type="MSShapeGroup"></path>
                <path d="M74.7010937,17.012962 C74.6731443,16.6386835 74.5935494,16.2780759 74.4610937,15.9305316 C74.3298532,15.5835949 74.1490937,15.2822278 73.9203342,15.025519 C73.6912709,14.7682025 73.4136,14.5601013 73.0876253,14.4 C72.7616506,14.2414177 72.3973975,14.1609114 71.994562,14.1609114 C71.5783595,14.1609114 71.1998278,14.2338228 70.8598785,14.3799494 C70.5196253,14.5254684 70.2285873,14.7262785 69.9852456,14.9832911 C69.7425114,15.2403038 69.5486886,15.5419747 69.4031696,15.8886076 C69.2573468,16.2355443 69.1771443,16.6107342 69.1631696,17.012962 L74.7010937,17.012962 Z M69.1631696,18.5747848 C69.1631696,18.9909873 69.2224101,19.3938228 69.3399797,19.7820759 C69.4584608,20.1709367 69.6346633,20.5105823 69.8707139,20.8022278 C70.1070684,21.0935696 70.4050937,21.3259747 70.7660051,21.5000506 C71.1269165,21.673519 71.5573975,21.7597975 72.0571443,21.7597975 C72.7507139,21.7597975 73.3100051,21.6106329 73.7331949,21.312 C74.156081,21.0142785 74.4723342,20.566481 74.6801316,19.9692152 L76.9282329,19.9692152 C76.8039797,20.5518987 76.5885873,21.0723038 76.2832709,21.531038 C75.9779544,21.9888608 75.6097519,22.3737722 75.1798785,22.6863797 C74.7490937,22.9986835 74.2672709,23.2344304 73.7331949,23.3945316 C73.1982076,23.5534177 72.6401316,23.6336203 72.0571443,23.6336203 C71.210157,23.6336203 70.4609924,23.4950886 69.8087392,23.2174177 C69.1561823,22.939443 68.6041823,22.5508861 68.1536506,22.051443 C67.7022076,21.5510886 67.362562,20.955038 67.1338025,20.2608608 C66.9044354,19.5666835 66.7902076,18.8038481 66.7902076,17.9705316 C66.7902076,17.2076962 66.911119,16.4825316 67.154157,15.7956456 C67.3968911,15.1078481 67.7441316,14.5045063 68.1955747,13.9844051 C68.6464101,13.4633924 69.1908152,13.0511392 69.8297013,12.7458228 C70.4679797,12.4402025 71.1894987,12.2870886 71.994562,12.2870886 C72.8412456,12.2870886 73.601043,12.4645063 74.2742582,12.8181266 C74.9471696,13.1723544 75.506157,13.6402025 75.9500051,14.2234937 C76.3944608,14.806481 76.7167899,15.4760506 76.9185114,16.2322025 C77.1193215,16.988962 77.1712709,17.7694177 77.0737519,18.5747848 L69.1631696,18.5747848 Z" id="Fill-12" fill="#0072CE" sketch:type="MSShapeGroup"></path>
                <path d="M78.1584304,12.5790987 L80.3867848,12.5790987 L80.3867848,14.6610228 L80.4277975,14.6610228 C80.4973671,14.3690734 80.632557,14.2554532 80.8333671,13.9774785 C81.0350886,13.6998076 81.2781266,13.4464405 81.562481,13.217681 C81.8465316,12.9886177 82.162481,12.8048203 82.5097215,12.6662886 C82.8563544,12.527757 83.2105823,12.4572759 83.5714937,12.4575797 C83.8518987,12.4581873 84.0709367,12.4685165 84.1441519,12.4785418 C84.2480506,12.4934278 84.3641013,12.5225924 84.466481,12.5790987 L84.466481,14.6400608 C84.3003038,14.6118076 84.1298734,14.5881114 83.9561013,14.5668456 C83.7826329,14.5458835 83.6131139,14.5352506 83.4466329,14.5352506 C83.0441013,14.5352506 82.6661772,14.615757 82.3122532,14.7752506 C81.9580253,14.9353519 81.6484557,15.1710987 81.3853671,15.4834025 C81.1216709,15.7954025 80.9135696,16.1806177 80.7610633,16.6384405 C80.6076456,17.0965671 80.532,17.6242633 80.532,18.2206177 L80.532,23.3417316 L78.1584304,23.3417316 L78.1584304,12.5790987 Z" id="Fill-14" fill="#0072CE" sketch:type="MSShapeGroup"></path>
                <path d="M177.753114,12.5790987 L179.981165,12.5790987 L179.981165,14.6610228 L180.022481,14.6610228 C180.092051,14.3690734 180.227241,14.2554532 180.428051,13.9774785 C180.629772,13.6998076 180.87281,13.4464405 181.156861,13.217681 C181.441215,12.9886177 181.757165,12.8048203 182.104405,12.6662886 C182.451038,12.527757 182.805266,12.4572759 183.165873,12.4575797 C183.446582,12.4581873 183.66562,12.4685165 183.738835,12.4785418 C183.843038,12.4934278 183.958785,12.5225924 184.061165,12.5790987 L184.061165,14.6400608 C183.894987,14.6118076 183.724557,14.5881114 183.551089,14.5668456 C183.377316,14.5458835 183.207797,14.5352506 183.041316,14.5352506 C182.638785,14.5352506 182.260861,14.615757 181.906937,14.7752506 C181.552709,14.9353519 181.243139,15.1710987 180.980051,15.4834025 C180.716354,15.7954025 180.507949,16.1806177 180.355443,16.6384405 C180.202329,17.0965671 180.126684,17.6242633 180.126684,18.2206177 L180.126684,23.3417316 L177.753114,23.3417316 L177.753114,12.5790987 Z" id="Fill-16" fill="#0072CE" sketch:type="MSShapeGroup"></path>
                <path d="M93.1271392,12.5790987 L90.5041519,20.8433013 L90.4619241,20.8433013 L87.7347342,12.5790987 L85.1536709,12.5790987 L89.0677975,23.3420354 L91.7321013,23.3420354 L95.5833418,12.5790987 L93.1271392,12.5790987 Z" id="Fill-18" fill="#0072CE" sketch:type="MSShapeGroup"></path>
                <path d="M96.4395949,23.3422785 L98.8128608,23.3422785 L98.8128608,12.5796456 L96.4395949,12.5796456 L96.4395949,23.3422785 Z M96.4395949,10.726481 L98.8128608,10.726481 L98.8128608,8.47777215 L96.4395949,8.47777215 L96.4395949,10.726481 Z" id="Fill-20" fill="#0072CE" sketch:type="MSShapeGroup"></path>
                <path d="M107.490167,16.1807696 C107.392952,15.514238 107.125914,15.0111494 106.688142,14.6708962 C106.251281,14.330643 105.699281,14.1611241 105.033357,14.1611241 C104.728041,14.1611241 104.401762,14.2127696 104.054218,14.3169722 C103.708192,14.4214785 103.388901,14.6159089 103.096952,14.8999595 C102.80561,15.1849215 102.562572,15.5804658 102.368749,16.0862886 C102.174015,16.5930228 102.077104,17.2559089 102.077104,18.074643 C102.077104,18.5194025 102.129053,18.9635544 102.233256,19.4074025 C102.336851,19.8515544 102.503635,20.2474025 102.733306,20.5937316 C102.962066,20.9409722 103.256446,21.2222886 103.617661,21.4370734 C103.977965,21.6524658 104.415737,21.7597063 104.928851,21.7597063 C105.623028,21.7597063 106.195686,21.5446177 106.647129,21.1141367 C107.097965,20.6848709 107.378977,20.0806177 107.490167,19.3032 L109.863433,19.3032 C109.640749,20.7049215 109.110623,21.7773266 108.270319,22.5195038 C107.430623,23.2628962 106.317205,23.6329215 104.928851,23.6329215 C104.082471,23.6329215 103.336344,23.4907443 102.691382,23.2066937 C102.045813,22.9220354 101.5008,22.5340861 101.056648,22.0413266 C100.612192,21.5482633 100.275889,20.9616304 100.047433,20.2817316 C99.8183696,19.6018329 99.703838,18.8663392 99.703838,18.074643 C99.703838,17.2701873 99.8144203,16.5134278 100.0368,15.8058835 C100.258876,15.0977316 100.591534,14.483757 101.036294,13.9633519 C101.480446,13.4423392 102.031838,13.0337316 102.691382,12.7350987 C103.349711,12.4364658 104.123787,12.2873013 105.013003,12.2873013 C105.637003,12.2873013 106.230623,12.3672 106.792648,12.5269975 C107.35437,12.6867949 107.853813,12.9255797 108.291585,13.2448709 C108.729053,13.5647696 109.085711,13.9669975 109.363382,14.452162 C109.640749,14.938238 109.80723,15.514238 109.863433,16.1807696 L107.490167,16.1807696 Z" id="Fill-22" fill="#0072CE" sketch:type="MSShapeGroup"></path>
                <path d="M118.546724,17.012962 C118.519078,16.6386835 118.439484,16.2780759 118.307028,15.9305316 C118.175787,15.5835949 117.995635,15.2822278 117.766876,15.025519 C117.538116,14.7682025 117.261053,14.5601013 116.935382,14.4 C116.609711,14.2414177 116.246066,14.1609114 115.844142,14.1609114 C115.428243,14.1609114 115.050015,14.2338228 114.710066,14.3799494 C114.370724,14.5254684 114.079686,14.7262785 113.836952,14.9832911 C113.594825,15.2403038 113.401003,15.5419747 113.255484,15.8886076 C113.109965,16.2355443 113.030066,16.6107342 113.016091,17.012962 L118.546724,17.012962 Z M113.016091,18.5747848 C113.016091,18.9909873 113.075028,19.3938228 113.192597,19.7820759 C113.310775,20.1709367 113.486977,20.5105823 113.723028,20.8022278 C113.958167,21.0935696 114.256192,21.3259747 114.617104,21.5000506 C114.977104,21.673519 115.406977,21.7597975 115.906116,21.7597975 C116.599078,21.7597975 117.156851,21.6106329 117.580041,21.312 C118.002319,21.0142785 118.317661,20.566481 118.525762,19.9692152 L120.771129,19.9692152 C120.646876,20.5518987 120.431484,21.0723038 120.127078,21.531038 C119.822066,21.9888608 119.454471,22.3737722 119.024597,22.6863797 C118.594724,22.9986835 118.113205,23.2344304 117.580041,23.3945316 C117.046268,23.5534177 116.4888,23.6336203 115.906116,23.6336203 C115.060344,23.6336203 114.312395,23.4950886 113.660749,23.2174177 C113.009104,22.939443 112.457711,22.5508861 112.008091,22.051443 C111.556952,21.5510886 111.21761,20.955038 110.988851,20.2608608 C110.760395,19.5666835 110.645863,18.8038481 110.645863,17.9705316 C110.645863,17.2076962 110.767382,16.4825316 111.009813,15.7956456 C111.251635,15.1078481 111.598572,14.5045063 112.049408,13.9844051 C112.499939,13.4633924 113.043737,13.0511392 113.681711,12.7458228 C114.319078,12.4402025 115.039686,12.2870886 115.844142,12.2870886 C116.689306,12.2870886 117.447889,12.4645063 118.1208,12.8181266 C118.792192,13.1723544 119.350572,13.6402025 119.793813,14.2234937 C120.237661,14.806481 120.55999,15.4760506 120.7608,16.2322025 C120.961914,16.988962 121.013863,17.7694177 120.916648,18.5747848 L113.016091,18.5747848 Z" id="Fill-23" fill="#0072CE" sketch:type="MSShapeGroup"></path>
                <path d="M134.285742,8.47755949 L130.288678,20.1151291 L130.247058,20.1151291 L126.145489,8.47755949 L122.481691,8.47755949 L122.481691,23.3420658 L124.959159,23.3420658 L124.959159,11.8706734 L125.000476,11.8706734 L129.122704,23.3420658 L131.266603,23.3420658 L135.38883,11.8706734 L135.431058,11.8706734 L135.431058,23.3420658 L137.907919,23.3420658 L137.907919,8.47755949 L134.285742,8.47755949 Z" id="Fill-24" fill="#0072CE" sketch:type="MSShapeGroup"></path>
                <path d="M146.056132,17.9495696 C145.695524,18.1859241 145.251068,18.3281013 144.723676,18.3770127 C144.196284,18.4250127 143.668891,18.4988354 143.142106,18.5951392 C142.891777,18.6373671 142.649043,18.696 142.413296,18.7722532 C142.177246,18.8491139 141.968537,18.9533165 141.788385,19.084557 C141.607929,19.2164051 141.466056,19.3898734 141.362157,19.6046582 C141.257651,19.8200506 141.205701,20.0807089 141.205701,20.3857215 C141.205701,20.6497215 141.281651,20.8714937 141.434461,21.0522532 C141.586663,21.2330127 141.771372,21.3742785 141.986461,21.4787848 C142.201549,21.5823797 142.437296,21.6555949 142.694613,21.6978228 C142.950714,21.7391392 143.183423,21.7601013 143.391828,21.7601013 C143.65522,21.7601013 143.939878,21.7257722 144.245195,21.6555949 C144.550511,21.5863291 144.838208,21.4681519 145.109499,21.3019747 C145.379575,21.1351899 145.605296,20.9237468 145.785448,20.6667342 C145.9656,20.4103291 146.056132,20.0946835 146.056132,19.7194937 L146.056132,17.9495696 Z M148.429701,20.9477468 C148.429701,21.2390886 148.46798,21.4477975 148.544233,21.5726582 C148.619878,21.6978228 148.769651,21.7601013 148.99203,21.7601013 L149.241144,21.7601013 C149.338967,21.7601013 149.449853,21.745519 149.574106,21.7178734 L149.574106,23.3626329 C149.491473,23.3902785 149.383625,23.4215696 149.252081,23.4562025 C149.119625,23.4908354 148.984739,23.5221266 148.845904,23.5500759 C148.707372,23.5777215 148.568841,23.5989873 148.429701,23.6132658 C148.290258,23.6266329 148.173296,23.6330127 148.075777,23.6330127 C147.590005,23.6330127 147.187473,23.5361013 146.867878,23.3419747 C146.548891,23.1478481 146.340486,22.8078987 146.243878,22.3221266 C145.772081,22.7799494 145.192435,23.1129114 144.505549,23.3213165 C143.818663,23.5294177 143.155473,23.6330127 142.517803,23.6330127 C142.030815,23.6330127 141.566309,23.5673924 141.122765,23.4355443 C140.678005,23.3036962 140.286714,23.1098734 139.946157,22.8531646 C139.605904,22.5964557 139.335524,22.2701772 139.134106,21.8740253 C138.932992,21.4787848 138.832739,21.0173165 138.832739,20.4896203 C138.832739,19.824 138.953043,19.2826329 139.196992,18.8661266 C139.439423,18.4496203 139.758714,18.1239494 140.154258,17.8875949 C140.549803,17.6515443 140.993651,17.4820253 141.48641,17.3772152 C141.978866,17.2730127 142.475271,17.1940253 142.975018,17.1381266 C143.405195,17.0551899 143.81441,16.9959494 144.203878,16.9607089 C144.591828,16.9269873 144.935727,16.867443 145.233448,16.7842025 C145.532081,16.700962 145.768435,16.5724557 145.9416,16.3989873 C146.115372,16.2258228 146.202258,15.9654684 146.202258,15.6182278 C146.202258,15.3132152 146.129043,15.0634937 145.983828,14.8687595 C145.838005,14.6752405 145.657246,14.5254684 145.442157,14.4212658 C145.227068,14.3167595 144.987068,14.2471899 144.723676,14.2128608 C144.459676,14.1785316 144.210258,14.1612152 143.974208,14.1612152 C143.308587,14.1612152 142.759625,14.2997468 142.329752,14.5774177 C141.899271,14.8547848 141.656537,15.2852658 141.601246,15.8679494 L139.22798,15.8679494 C139.269296,15.1740759 139.436081,14.5977722 139.727119,14.140557 C140.019068,13.6818228 140.390613,13.3145316 140.841144,13.0368608 C141.29198,12.7597975 141.801752,12.5650633 142.371068,12.4535696 C142.940385,12.3432911 143.523068,12.2870886 144.120638,12.2870886 C144.647727,12.2870886 145.167828,12.3432911 145.681549,12.4535696 C146.194663,12.5650633 146.656435,12.7452152 147.065651,12.9949367 C147.47517,13.244962 147.80479,13.5678987 148.054511,13.963443 C148.304537,14.3592911 148.429701,14.8408101 148.429701,15.4101266 L148.429701,20.9477468 Z" id="Fill-25" fill="#0072CE" sketch:type="MSShapeGroup"></path>
                <path d="M152.30801,19.8859747 C152.37758,20.5804557 152.64158,21.0665316 153.099099,21.3432911 C153.556922,21.6212658 154.104668,21.7601013 154.744162,21.7601013 C154.965327,21.7601013 155.219301,21.7427848 155.504263,21.7078481 C155.788314,21.6732152 156.055352,21.6072911 156.305073,21.5103797 C156.555403,21.4128608 156.760162,21.2703797 156.919656,21.0835443 C157.078542,20.8954937 157.151453,20.6497215 157.138086,20.3437975 C157.124415,20.0390886 157.012922,19.7893671 156.805428,19.5949367 C156.596719,19.4002025 156.329073,19.2440506 156.003403,19.1261772 C155.676516,19.0086076 155.306187,18.9071392 154.889681,18.8242025 C154.473175,18.7415696 154.049985,18.651038 153.619504,18.553519 C153.175656,18.4566076 152.74882,18.339038 152.339605,18.1995949 C151.929782,18.0610633 151.56158,17.8742278 151.235909,17.6375696 C150.909327,17.401519 150.649884,17.1001519 150.455149,16.7319494 C150.260719,16.3643544 150.163808,15.9098734 150.163808,15.3685063 C150.163808,14.7858228 150.305377,14.2964051 150.590947,13.9011646 C150.874694,13.5056203 151.235909,13.1863291 151.67277,12.9432911 C152.110542,12.700557 152.59601,12.5298228 153.130086,12.4326076 C153.66477,12.3363038 154.174542,12.2870886 154.660618,12.2870886 C155.215352,12.2870886 155.746086,12.3463291 156.253124,12.4648101 C156.760162,12.5820759 157.217681,12.7737722 157.627504,13.0368608 C158.036415,13.3011646 158.377276,13.6438481 158.647048,14.0667342 C158.918339,14.4911392 159.087858,15.0009114 159.157124,15.5972658 L156.680263,15.5972658 C156.568162,15.0282532 156.308415,14.6469873 155.899504,14.4522532 C155.490289,14.2587342 155.021529,14.1612152 154.494137,14.1612152 C154.327656,14.1612152 154.12958,14.1748861 153.90082,14.2025316 C153.671453,14.2301772 153.456365,14.2827342 153.255251,14.3589873 C153.054137,14.4349367 152.88401,14.5458228 152.745478,14.6922532 C152.606339,14.8377722 152.53677,15.0282532 152.53677,15.2643038 C152.53677,15.5553418 152.637327,15.792 152.839048,15.9721519 C153.039858,16.1529114 153.303858,16.3023797 153.630441,16.4199494 C153.956719,16.5378228 154.327656,16.6383797 154.744162,16.7222278 C155.160365,16.8051646 155.590846,16.8953924 156.034694,16.992 C156.464871,17.089519 156.888365,17.2073924 157.304871,17.3462278 C157.72077,17.4847595 158.09201,17.6722025 158.418289,17.908557 C158.744871,18.144 159.008567,18.4423291 159.209681,18.8038481 C159.410187,19.1647595 159.511656,19.6086076 159.511656,20.1356962 C159.511656,20.7742785 159.365529,21.3162532 159.073884,21.7601013 C158.782846,22.2042532 158.40401,22.5648608 157.939504,22.8422278 C157.474694,23.1202025 156.957934,23.3210127 156.388618,23.446481 C155.819605,23.571038 155.257276,23.6333165 154.702542,23.6333165 C154.022035,23.6333165 153.393782,23.5567595 152.818086,23.4042532 C152.241782,23.2517468 151.742339,23.0193418 151.319149,22.7064304 C150.896263,22.3944304 150.56239,22.0067848 150.319959,21.5410633 C150.076922,21.0762532 149.948111,20.5242532 149.934744,19.8859747 L152.30801,19.8859747 Z" id="Fill-26" fill="#0072CE" sketch:type="MSShapeGroup"></path>
                <path d="M159.681904,12.5790987 L161.47279,12.5790987 L161.47279,9.35216203 L163.845448,9.35216203 L163.845448,12.5790987 L165.990258,12.5790987 L165.990258,14.3481114 L163.845448,14.3481114 L163.845448,20.0947443 C163.845448,20.3438582 163.855777,20.5595544 163.877043,20.7397063 C163.897701,20.920162 163.945701,21.0723646 164.022562,21.1978329 C164.098815,21.3220861 164.213347,21.4168709 164.365853,21.4788456 C164.518359,21.5414278 164.727068,21.5724152 164.990765,21.5724152 C165.156638,21.5724152 165.323119,21.5690734 165.4896,21.5623899 C165.656385,21.5554025 165.823473,21.5307949 165.990258,21.4888709 L165.990258,23.3210734 C165.725954,23.3493266 165.469853,23.3763646 165.219828,23.4043139 C164.969803,23.4322633 164.713094,23.446238 164.44879,23.446238 C163.824486,23.446238 163.321397,23.3873013 162.940435,23.2691241 C162.557954,23.1512506 162.259625,22.9777823 162.044537,22.748719 C161.829144,22.5196557 161.683322,22.2316557 161.607372,21.884719 C161.531119,21.5380861 161.485853,21.1425418 161.47279,20.6980861 L161.47279,14.3481114 L159.681904,14.3481114 L159.681904,12.5790987 Z" id="Fill-27" fill="#0072CE" sketch:type="MSShapeGroup"></path>
                <path d="M174.206643,17.012962 C174.178694,16.6386835 174.099099,16.2780759 173.966643,15.9305316 C173.835403,15.5835949 173.654947,15.2822278 173.426187,15.025519 C173.19682,14.7682025 172.919149,14.5601013 172.593175,14.4 C172.2672,14.2414177 171.902947,14.1609114 171.500415,14.1609114 C171.083909,14.1609114 170.705681,14.2338228 170.365428,14.3799494 C170.025175,14.5254684 169.733529,14.7262785 169.491099,14.9832911 C169.248061,15.2403038 169.054238,15.5419747 168.908719,15.8886076 C168.762592,16.2355443 168.682694,16.6107342 168.668719,17.012962 L174.206643,17.012962 Z M168.668719,18.5747848 C168.668719,18.9909873 168.727959,19.3938228 168.845833,19.7820759 C168.96401,20.1709367 169.140213,20.5105823 169.376567,20.8022278 C169.612618,21.0935696 169.910643,21.3259747 170.271858,21.5000506 C170.632466,21.673519 171.062643,21.7597975 171.562694,21.7597975 C172.256263,21.7597975 172.814947,21.6106329 173.238744,21.312 C173.66163,21.0142785 173.977884,20.566481 174.185985,19.9692152 L176.433782,19.9692152 C176.309529,20.5518987 176.094137,21.0723038 175.78882,21.531038 C175.4832,21.9888608 175.115301,22.3737722 174.685428,22.6863797 C174.254947,22.9986835 173.77282,23.2344304 173.238744,23.3945316 C172.703757,23.5534177 172.145681,23.6336203 171.562694,23.6336203 C170.715706,23.6336203 169.966542,23.4950886 169.314289,23.2174177 C168.661732,22.939443 168.110035,22.5508861 167.6592,22.051443 C167.207757,21.5510886 166.868111,20.955038 166.638744,20.2608608 C166.409985,19.5666835 166.295453,18.8038481 166.295453,17.9705316 C166.295453,17.2076962 166.416668,16.4825316 166.659706,15.7956456 C166.901833,15.1078481 167.249985,14.5045063 167.700516,13.9844051 C168.151959,13.4633924 168.696365,13.0511392 169.335251,12.7458228 C169.973529,12.4402025 170.695048,12.2870886 171.500415,12.2870886 C172.346795,12.2870886 173.106592,12.4645063 173.780111,12.8181266 C174.453023,13.1723544 175.011706,13.6402025 175.455554,14.2234937 C175.90001,14.806481 176.222947,15.4760506 176.424061,16.2322025 C176.624871,16.988962 176.67682,17.7694177 176.579605,18.5747848 L168.668719,18.5747848 Z" id="Fill-28" fill="#0072CE" sketch:type="MSShapeGroup"></path>
                <path d="M182.758056,21.8971443 C182.841296,21.8971443 182.909347,21.8856 182.962511,21.8625114 C183.01598,21.8394228 183.04241,21.7841316 183.04241,21.6960304 C183.04241,21.6568405 183.032992,21.6252456 183.014765,21.602157 C182.995929,21.5796759 182.972537,21.5614481 182.943372,21.5489924 C182.914815,21.5362329 182.882309,21.5274228 182.846461,21.5228658 C182.810613,21.5183089 182.776891,21.5155747 182.744081,21.5155747 L182.501651,21.5155747 L182.501651,21.8971443 L182.758056,21.8971443 Z M182.761701,21.2907646 C182.94398,21.2907646 183.084334,21.3229671 183.182461,21.3873722 C183.281195,21.452081 183.329803,21.5629671 183.329803,21.7203342 C183.329803,21.7874734 183.320385,21.8442835 183.300334,21.8916759 C183.281195,21.9393722 183.253549,21.9779544 183.21922,22.0077266 C183.184284,22.0381063 183.144182,22.0611949 183.097701,22.0772962 C183.051524,22.0933975 183.002309,22.1037266 182.948537,22.1082835 L183.33679,22.7423089 L183.035423,22.7423089 L182.681803,22.1219544 L182.501651,22.1219544 L182.501651,22.7423089 L182.213954,22.7423089 L182.213954,21.2907646 L182.761701,21.2907646 Z M181.829347,22.4269671 C181.880081,22.5518278 181.949347,22.6599797 182.037144,22.7514228 C182.125246,22.8422582 182.228233,22.9136506 182.347322,22.9643848 C182.46641,23.015119 182.594005,23.040638 182.73041,23.040638 C182.864689,23.040638 182.991068,23.015119 183.109853,22.9643848 C183.229246,22.9136506 183.332233,22.8422582 183.420334,22.7514228 C183.508132,22.6599797 183.577701,22.5518278 183.629651,22.4269671 C183.6816,22.3027139 183.707423,22.1663089 183.707423,22.0180557 C183.707423,21.8707139 183.6816,21.7349165 183.629651,21.6112709 C183.577701,21.4873215 183.508132,21.3806886 183.420334,21.2907646 C183.332233,21.2005367 183.229246,21.1300557 183.109853,21.0793215 C182.991068,21.0285873 182.864689,21.0030684 182.73041,21.0030684 C182.594005,21.0030684 182.46641,21.0285873 182.347322,21.0793215 C182.228233,21.1300557 182.125246,21.2005367 182.037144,21.2907646 C181.949347,21.3806886 181.880081,21.4873215 181.829347,21.6112709 C181.778613,21.7349165 181.753094,21.8707139 181.753094,22.0180557 C181.753094,22.1663089 181.778613,22.3027139 181.829347,22.4269671 L181.829347,22.4269671 Z M181.509144,21.4848911 C181.581448,21.3250937 181.678967,21.1896 181.802005,21.0774987 C181.924132,20.9653975 182.065701,20.8785114 182.226106,20.8174481 C182.386815,20.7566886 182.554815,20.7257013 182.73041,20.7257013 C182.905701,20.7257013 183.074005,20.7566886 183.23441,20.8174481 C183.395423,20.8785114 183.536689,20.9653975 183.659119,21.0774987 C183.781549,21.1896 183.879068,21.3250937 183.952284,21.4848911 C184.024587,21.644081 184.061043,21.8221063 184.061043,22.0180557 C184.061043,22.2173468 184.024587,22.3962835 183.952284,22.5554734 C183.879068,22.7146633 183.781549,22.8513722 183.659119,22.9643848 C183.536689,23.0777013 183.395423,23.1642835 183.23441,23.2241316 C183.074005,23.2842835 182.905701,23.3143595 182.73041,23.3143595 C182.554815,23.3143595 182.386815,23.2842835 182.226106,23.2241316 C182.065701,23.1642835 181.924132,23.0777013 181.802005,22.9643848 C181.678967,22.8513722 181.581448,22.7146633 181.509144,22.5554734 C181.435929,22.3962835 181.399777,22.2173468 181.399777,22.0180557 C181.399777,21.8221063 181.435929,21.644081 181.509144,21.4848911 L181.509144,21.4848911 Z" id="Fill-29" fill="#0072CE" sketch:type="MSShapeGroup"></path>
            </g>
        </g>
    </g>
</svg>