<?xml version="1.0" encoding="UTF-8" standalone="no"?>
<svg width="50px" height="50px" viewBox="0 0 43 24" version="1.1" xmlns="http://www.w3.org/2000/svg" xmlns:xlink="http://www.w3.org/1999/xlink">
    <g id="lockup" stroke="none" stroke-width="1" fill="none" fill-rule="evenodd">
        <path d="M30.098643,8.78816203 L30.0995544,8.78694684 L29.9692253,8.65327595 L23.0930734,1.72395949 L23.0930734,1.7236557 L21.7654785,0.382389873 L21.7651747,0.382086076 C21.6463899,0.262086076 21.4923646,0.204060759 21.3359089,0.191301266 L21.3106937,0.190997468 C21.3094785,0.190997468 21.3082633,0.190693671 21.3073519,0.190693671 L21.2699848,0.190997468 L21.2329215,0.190693671 C21.2314025,0.190693671 21.2304911,0.190997468 21.2295797,0.190997468 L21.2040608,0.191301266 C21.0476051,0.204060759 20.8935797,0.262086076 20.7744911,0.382086076 L20.7744911,0.382389873 L19.4468962,1.7236557 L19.4468962,1.72395949 L12.5412759,8.6830481 L12.410643,8.81671899 L12.4115544,8.81823797 C12.0354532,9.19828861 12.0354532,9.82016203 12.4115544,10.2008203 L13.3211241,11.1201114 C13.7051241,11.5083646 14.333681,11.5083646 14.717681,11.1201114 L14.7173772,11.1195038 L20.7140354,5.07727595 C20.7878582,5.00284557 20.8753519,4.94421266 20.9719595,4.90502278 C21.1624405,4.82725063 21.3760101,4.82876962 21.5652759,4.90836456 L21.5853266,4.91747848 C21.6788962,4.95666835 21.7630481,5.01378228 21.8338329,5.08547848 L27.7928203,11.0900354 C28.1765165,11.4779848 28.8050734,11.4779848 29.1893772,11.0900354 L30.098643,10.1710481 C30.4747443,9.79069367 30.4747443,9.16821266 30.098643,8.78816203" id="Fill-1" fill="#F4364C"></path>
        <path d="M8.67706329,12.6743392 C9.06136709,12.2863899 9.68992405,12.2863899 10.0739241,12.6743392 L10.9837975,13.5936304 C11.3602025,13.9742886 11.3602025,14.5967696 10.9837975,14.9771241 L2.89275949,23.1343899 C2.5084557,23.5223392 1.87989873,23.5223392 1.49589873,23.1343899 L0.585721519,22.2147949 C0.209620253,21.8344405 0.209620253,21.2119595 0.585721519,20.8316051 L8.67706329,12.6743392 Z" id="Fill-4" fill="#0072CE" ></path>
        <path d="M41.9203443,20.8314835 C42.2967494,21.2121418 42.2967494,21.834319 41.9203443,22.2149772 L41.0104709,23.1345722 C40.6261671,23.5225215 39.9976101,23.5225215 39.6136101,23.1345722 L31.5222684,14.9776101 C31.1458633,14.5969519 31.1458633,13.9741671 31.5222684,13.5938127 L32.4321418,12.6745215 C32.8164456,12.2862684 33.4450025,12.2862684 33.8290025,12.6745215 L41.9203443,20.8314835 Z" id="Fill-7" fill="#0072CE" ></path>
    </g>
</svg>